<mxfile host="app.diagrams.net" agent="Mozilla/5.0 (Windows NT 10.0; Win64; x64) AppleWebKit/537.36 (KHTML, like Gecko) Chrome/127.0.0.0 Safari/537.36 Edg/127.0.0.0" version="24.7.6">
  <diagram name="Page-1" id="j5nKrrAhbqR-DeLErfXP">
    <mxGraphModel dx="4240" dy="1863" grid="1" gridSize="10" guides="1" tooltips="1" connect="1" arrows="1" fold="1" page="1" pageScale="1" pageWidth="827" pageHeight="1169" math="0" shadow="0">
      <root>
        <mxCell id="0" />
        <mxCell id="1" parent="0" />
        <mxCell id="FGnUj0IoWi0735SVEYUN-1" value="UI" style="swimlane;whiteSpace=wrap;html=1;" vertex="1" parent="1">
          <mxGeometry x="-280" y="40" width="590" height="1250" as="geometry" />
        </mxCell>
        <mxCell id="FGnUj0IoWi0735SVEYUN-4" value="" style="ellipse;fillColor=strokeColor;html=1;" vertex="1" parent="FGnUj0IoWi0735SVEYUN-1">
          <mxGeometry x="240" y="90" width="30" height="30" as="geometry" />
        </mxCell>
        <mxCell id="FGnUj0IoWi0735SVEYUN-5" value="&lt;font style=&quot;font-size: 16px;&quot;&gt;Cliquer sur le Filtre de recherche&lt;/font&gt;" style="html=1;align=center;verticalAlign=top;rounded=1;absoluteArcSize=1;arcSize=10;dashed=0;whiteSpace=wrap;" vertex="1" parent="FGnUj0IoWi0735SVEYUN-1">
          <mxGeometry x="168" y="164" width="190" height="50" as="geometry" />
        </mxCell>
        <mxCell id="FGnUj0IoWi0735SVEYUN-6" value="" style="html=1;verticalAlign=bottom;labelBackgroundColor=none;endArrow=block;endFill=1;rounded=0;entryX=0.464;entryY=0;entryDx=0;entryDy=0;exitX=0.5;exitY=1;exitDx=0;exitDy=0;entryPerimeter=0;" edge="1" parent="FGnUj0IoWi0735SVEYUN-1" source="FGnUj0IoWi0735SVEYUN-4" target="FGnUj0IoWi0735SVEYUN-5">
          <mxGeometry width="160" relative="1" as="geometry">
            <mxPoint x="10" y="170" as="sourcePoint" />
            <mxPoint x="170" y="170" as="targetPoint" />
          </mxGeometry>
        </mxCell>
        <mxCell id="FGnUj0IoWi0735SVEYUN-7" value="&lt;font style=&quot;font-size: 16px;&quot;&gt;Valider la Recherche&lt;/font&gt;" style="html=1;align=center;verticalAlign=top;rounded=1;absoluteArcSize=1;arcSize=10;dashed=0;whiteSpace=wrap;" vertex="1" parent="FGnUj0IoWi0735SVEYUN-1">
          <mxGeometry x="190" y="258" width="140" height="50" as="geometry" />
        </mxCell>
        <mxCell id="FGnUj0IoWi0735SVEYUN-10" value="&lt;font style=&quot;font-size: 16px;&quot;&gt;Affiche la liste des missions a intégrer dans les dépensées caisse&lt;/font&gt;" style="html=1;align=center;verticalAlign=top;rounded=1;absoluteArcSize=1;arcSize=10;dashed=0;whiteSpace=wrap;" vertex="1" parent="FGnUj0IoWi0735SVEYUN-1">
          <mxGeometry x="163" y="530" width="240" height="70" as="geometry" />
        </mxCell>
        <mxCell id="FGnUj0IoWi0735SVEYUN-13" value="&lt;font style=&quot;font-size: 16px;&quot;&gt;Sélectionne toutes les missions a intégrer dans les dépenses caisse&lt;/font&gt;" style="html=1;align=center;verticalAlign=top;rounded=1;absoluteArcSize=1;arcSize=10;dashed=0;whiteSpace=wrap;" vertex="1" parent="FGnUj0IoWi0735SVEYUN-1">
          <mxGeometry x="160" y="685" width="180" height="75" as="geometry" />
        </mxCell>
        <mxCell id="FGnUj0IoWi0735SVEYUN-14" value="" style="html=1;verticalAlign=bottom;labelBackgroundColor=none;endArrow=block;endFill=1;rounded=0;" edge="1" parent="FGnUj0IoWi0735SVEYUN-1">
          <mxGeometry width="160" relative="1" as="geometry">
            <mxPoint x="80" y="710" as="sourcePoint" />
            <mxPoint x="160" y="710" as="targetPoint" />
          </mxGeometry>
        </mxCell>
        <mxCell id="FGnUj0IoWi0735SVEYUN-15" value="&lt;span style=&quot;font-size: 13px;&quot;&gt;cette actions active automatiquement les boutons éditer&lt;/span&gt;" style="shape=note2;boundedLbl=1;whiteSpace=wrap;html=1;size=12;verticalAlign=middle;align=center;fillColor=#FFF2D9;strokeColor=#D79B00;fillOpacity=50;" vertex="1" parent="FGnUj0IoWi0735SVEYUN-1">
          <mxGeometry x="10" y="610" width="140" height="50" as="geometry" />
        </mxCell>
        <mxCell id="FGnUj0IoWi0735SVEYUN-16" value="" style="html=1;verticalAlign=bottom;labelBackgroundColor=none;endArrow=block;endFill=1;rounded=0;exitX=0;exitY=0;exitDx=140;exitDy=31;exitPerimeter=0;entryX=0;entryY=0;entryDx=0;entryDy=0;fontColor=#990000;strokeColor=#8C8C8C;" edge="1" parent="FGnUj0IoWi0735SVEYUN-1" source="FGnUj0IoWi0735SVEYUN-15" target="FGnUj0IoWi0735SVEYUN-13">
          <mxGeometry width="160" relative="1" as="geometry">
            <mxPoint x="25.700000000000273" y="660.9000000000001" as="sourcePoint" />
            <mxPoint x="133" y="695" as="targetPoint" />
          </mxGeometry>
        </mxCell>
        <mxCell id="FGnUj0IoWi0735SVEYUN-26" value="&lt;span style=&quot;font-size: 16px;&quot;&gt;Editer&lt;/span&gt;" style="html=1;align=center;verticalAlign=top;rounded=1;absoluteArcSize=1;arcSize=10;dashed=0;whiteSpace=wrap;" vertex="1" parent="FGnUj0IoWi0735SVEYUN-1">
          <mxGeometry x="95" y="800" width="120" height="40" as="geometry" />
        </mxCell>
        <mxCell id="FGnUj0IoWi0735SVEYUN-28" value="" style="html=1;verticalAlign=bottom;labelBackgroundColor=none;endArrow=block;endFill=1;rounded=0;entryX=0.708;entryY=0;entryDx=0;entryDy=0;exitX=0.117;exitY=1.04;exitDx=0;exitDy=0;exitPerimeter=0;entryPerimeter=0;" edge="1" parent="FGnUj0IoWi0735SVEYUN-1" source="FGnUj0IoWi0735SVEYUN-13" target="FGnUj0IoWi0735SVEYUN-26">
          <mxGeometry width="160" relative="1" as="geometry">
            <mxPoint x="10" y="720" as="sourcePoint" />
            <mxPoint x="170" y="720" as="targetPoint" />
          </mxGeometry>
        </mxCell>
        <mxCell id="FGnUj0IoWi0735SVEYUN-29" value="&lt;font style=&quot;font-size: 16px;&quot;&gt;Saisie les champs de filtre&lt;/font&gt;" style="html=1;align=center;verticalAlign=top;rounded=1;absoluteArcSize=1;arcSize=10;dashed=0;whiteSpace=wrap;" vertex="1" parent="FGnUj0IoWi0735SVEYUN-1">
          <mxGeometry x="10" y="258" width="140" height="50" as="geometry" />
        </mxCell>
        <mxCell id="FGnUj0IoWi0735SVEYUN-8" value="" style="html=1;verticalAlign=bottom;labelBackgroundColor=none;endArrow=block;endFill=1;rounded=0;entryX=0.5;entryY=0;entryDx=0;entryDy=0;exitX=0;exitY=0.5;exitDx=0;exitDy=0;entryPerimeter=0;" edge="1" parent="FGnUj0IoWi0735SVEYUN-1" source="FGnUj0IoWi0735SVEYUN-5" target="FGnUj0IoWi0735SVEYUN-29">
          <mxGeometry width="160" relative="1" as="geometry">
            <mxPoint x="85" y="214" as="sourcePoint" />
            <mxPoint x="86" y="258" as="targetPoint" />
            <Array as="points">
              <mxPoint x="80" y="189" />
            </Array>
          </mxGeometry>
        </mxCell>
        <mxCell id="FGnUj0IoWi0735SVEYUN-30" value="" style="html=1;verticalAlign=bottom;labelBackgroundColor=none;endArrow=block;endFill=1;rounded=0;entryX=0;entryY=0.5;entryDx=0;entryDy=0;exitX=1;exitY=0.5;exitDx=0;exitDy=0;" edge="1" parent="FGnUj0IoWi0735SVEYUN-1" source="FGnUj0IoWi0735SVEYUN-29" target="FGnUj0IoWi0735SVEYUN-7">
          <mxGeometry width="160" relative="1" as="geometry">
            <mxPoint x="170" y="350" as="sourcePoint" />
            <mxPoint x="240" y="350" as="targetPoint" />
          </mxGeometry>
        </mxCell>
        <mxCell id="FGnUj0IoWi0735SVEYUN-31" value="&lt;span style=&quot;font-size: 16px;&quot;&gt;&lt;b&gt;Erreur :&lt;/b&gt; Les champs Date et UO sont obligatoire&lt;/span&gt;" style="html=1;align=center;verticalAlign=top;rounded=1;absoluteArcSize=1;arcSize=10;dashed=0;whiteSpace=wrap;fillColor=#f8cecc;strokeColor=#b85450;" vertex="1" parent="FGnUj0IoWi0735SVEYUN-1">
          <mxGeometry x="380" y="100" width="190" height="50" as="geometry" />
        </mxCell>
        <mxCell id="FGnUj0IoWi0735SVEYUN-33" value="&lt;span style=&quot;font-size: 16px;&quot;&gt;Editer par lot&lt;/span&gt;" style="html=1;align=center;verticalAlign=top;rounded=1;absoluteArcSize=1;arcSize=10;dashed=0;whiteSpace=wrap;" vertex="1" parent="FGnUj0IoWi0735SVEYUN-1">
          <mxGeometry x="220" y="1040" width="120" height="40" as="geometry" />
        </mxCell>
        <mxCell id="FGnUj0IoWi0735SVEYUN-34" value="" style="html=1;verticalAlign=bottom;labelBackgroundColor=none;endArrow=block;endFill=1;rounded=0;entryX=0.594;entryY=0.033;entryDx=0;entryDy=0;exitX=0.75;exitY=1;exitDx=0;exitDy=0;entryPerimeter=0;" edge="1" parent="FGnUj0IoWi0735SVEYUN-1" source="FGnUj0IoWi0735SVEYUN-13" target="FGnUj0IoWi0735SVEYUN-33">
          <mxGeometry width="160" relative="1" as="geometry">
            <mxPoint x="225" y="745" as="sourcePoint" />
            <mxPoint x="143" y="790" as="targetPoint" />
          </mxGeometry>
        </mxCell>
        <mxCell id="FGnUj0IoWi0735SVEYUN-37" value="&lt;font style=&quot;font-size: 16px;&quot;&gt;Affiche toutes les missions qui constitue le lot&lt;/font&gt;" style="html=1;align=center;verticalAlign=top;rounded=1;absoluteArcSize=1;arcSize=10;dashed=0;whiteSpace=wrap;" vertex="1" parent="FGnUj0IoWi0735SVEYUN-1">
          <mxGeometry x="320" y="860" width="260" height="50" as="geometry" />
        </mxCell>
        <mxCell id="FGnUj0IoWi0735SVEYUN-40" value="&lt;font style=&quot;font-size: 16px;&quot;&gt;Affiche le PDF avec toutes les missions qui constituent le lot et la liste des MOJ qui ont été affectées a ces misions&amp;nbsp;&lt;/font&gt;" style="html=1;align=center;verticalAlign=middle;rounded=1;absoluteArcSize=1;arcSize=10;dashed=0;whiteSpace=wrap;" vertex="1" parent="FGnUj0IoWi0735SVEYUN-1">
          <mxGeometry x="220" y="1140" width="330" height="80" as="geometry" />
        </mxCell>
        <mxCell id="FGnUj0IoWi0735SVEYUN-2" value="Control" style="swimlane;whiteSpace=wrap;html=1;" vertex="1" parent="1">
          <mxGeometry x="312" y="40" width="408" height="1250" as="geometry" />
        </mxCell>
        <mxCell id="FGnUj0IoWi0735SVEYUN-17" value="vérifie si &#xa;les champs UO &amp;&#xa;Date début &amp; Date&#xa;de fin de réalisation&#xa;sont non&#xa;vide" style="rhombus;fontSize=18;fontStyle=2" vertex="1" parent="FGnUj0IoWi0735SVEYUN-2">
          <mxGeometry x="88" y="189" width="220" height="180" as="geometry" />
        </mxCell>
        <mxCell id="FGnUj0IoWi0735SVEYUN-24" value="Si OUI" style="text;html=1;align=center;verticalAlign=middle;whiteSpace=wrap;rounded=0;" vertex="1" parent="FGnUj0IoWi0735SVEYUN-2">
          <mxGeometry x="301" y="257" width="60" height="30" as="geometry" />
        </mxCell>
        <mxCell id="FGnUj0IoWi0735SVEYUN-36" value="" style="html=1;verticalAlign=bottom;labelBackgroundColor=none;endArrow=block;endFill=1;rounded=0;entryX=0;entryY=0.61;entryDx=0;entryDy=0;entryPerimeter=0;" edge="1" parent="FGnUj0IoWi0735SVEYUN-2" target="FGnUj0IoWi0735SVEYUN-39">
          <mxGeometry width="160" relative="1" as="geometry">
            <mxPoint x="-252" y="1060" as="sourcePoint" />
            <mxPoint x="418" y="1060.83" as="targetPoint" />
          </mxGeometry>
        </mxCell>
        <mxCell id="FGnUj0IoWi0735SVEYUN-42" value="" style="html=1;verticalAlign=bottom;labelBackgroundColor=none;endArrow=block;endFill=1;rounded=0;entryX=0.006;entryY=0.89;entryDx=0;entryDy=0;entryPerimeter=0;" edge="1" parent="FGnUj0IoWi0735SVEYUN-2" target="FGnUj0IoWi0735SVEYUN-32">
          <mxGeometry width="160" relative="1" as="geometry">
            <mxPoint x="-377" y="821" as="sourcePoint" />
            <mxPoint x="333" y="820" as="targetPoint" />
          </mxGeometry>
        </mxCell>
        <mxCell id="FGnUj0IoWi0735SVEYUN-3" value="System" style="swimlane;whiteSpace=wrap;html=1;" vertex="1" parent="1">
          <mxGeometry x="720" y="40" width="480" height="1250" as="geometry" />
        </mxCell>
        <mxCell id="FGnUj0IoWi0735SVEYUN-9" value="&lt;font style=&quot;font-size: 16px;&quot;&gt;Récupéré&amp;nbsp; en fonction du critère de recherche Toute les missions ayant le statut à payer&lt;/font&gt;" style="html=1;align=center;verticalAlign=top;rounded=1;absoluteArcSize=1;arcSize=10;dashed=0;whiteSpace=wrap;" vertex="1" parent="FGnUj0IoWi0735SVEYUN-3">
          <mxGeometry x="107" y="250" width="363" height="50" as="geometry" />
        </mxCell>
        <mxCell id="FGnUj0IoWi0735SVEYUN-19" value="" style="html=1;verticalAlign=bottom;labelBackgroundColor=none;endArrow=block;endFill=1;rounded=0;" edge="1" parent="FGnUj0IoWi0735SVEYUN-3">
          <mxGeometry width="160" relative="1" as="geometry">
            <mxPoint x="-100" y="280.29" as="sourcePoint" />
            <mxPoint x="110" y="279" as="targetPoint" />
          </mxGeometry>
        </mxCell>
        <mxCell id="FGnUj0IoWi0735SVEYUN-32" value="&lt;font style=&quot;font-size: 16px;&quot;&gt;Recupere toutes les missions qui constitue le lot&lt;/font&gt;" style="html=1;align=center;verticalAlign=top;rounded=1;absoluteArcSize=1;arcSize=10;dashed=0;whiteSpace=wrap;" vertex="1" parent="FGnUj0IoWi0735SVEYUN-3">
          <mxGeometry x="60" y="776" width="260" height="50" as="geometry" />
        </mxCell>
        <mxCell id="FGnUj0IoWi0735SVEYUN-39" value="&lt;font style=&quot;font-size: 16px;&quot;&gt;Récupère et génère un PDF avec toutes les missions qui constituent le lot et la liste des MOJ qui ont été affectées a ces misions&lt;/font&gt;" style="html=1;align=center;verticalAlign=middle;rounded=1;absoluteArcSize=1;arcSize=10;dashed=0;whiteSpace=wrap;" vertex="1" parent="FGnUj0IoWi0735SVEYUN-3">
          <mxGeometry x="50" y="1010" width="330" height="80" as="geometry" />
        </mxCell>
        <mxCell id="FGnUj0IoWi0735SVEYUN-12" value="" style="html=1;verticalAlign=bottom;labelBackgroundColor=none;endArrow=block;endFill=1;rounded=0;exitX=0.459;exitY=1.093;exitDx=0;exitDy=0;exitPerimeter=0;entryX=1;entryY=0.5;entryDx=0;entryDy=0;" edge="1" parent="1" target="FGnUj0IoWi0735SVEYUN-10">
          <mxGeometry width="160" relative="1" as="geometry">
            <mxPoint x="964.6999999999998" y="339.65" as="sourcePoint" />
            <mxPoint x="150" y="450" as="targetPoint" />
            <Array as="points">
              <mxPoint x="965" y="600" />
            </Array>
          </mxGeometry>
        </mxCell>
        <mxCell id="FGnUj0IoWi0735SVEYUN-25" value="Si NON" style="text;html=1;align=center;verticalAlign=middle;whiteSpace=wrap;rounded=0;" vertex="1" parent="1">
          <mxGeometry x="503" y="197" width="60" height="30" as="geometry" />
        </mxCell>
        <mxCell id="FGnUj0IoWi0735SVEYUN-11" value="" style="html=1;verticalAlign=bottom;labelBackgroundColor=none;endArrow=block;endFill=1;rounded=0;entryX=0;entryY=0.5;entryDx=0;entryDy=0;exitX=0.999;exitY=0.448;exitDx=0;exitDy=0;exitPerimeter=0;" edge="1" parent="1" source="FGnUj0IoWi0735SVEYUN-7" target="FGnUj0IoWi0735SVEYUN-17">
          <mxGeometry width="160" relative="1" as="geometry">
            <mxPoint x="90" y="320" as="sourcePoint" />
            <mxPoint x="270" y="320" as="targetPoint" />
          </mxGeometry>
        </mxCell>
        <mxCell id="FGnUj0IoWi0735SVEYUN-20" value="" style="html=1;verticalAlign=bottom;labelBackgroundColor=none;endArrow=block;endFill=1;rounded=0;exitX=0.5;exitY=0;exitDx=0;exitDy=0;entryX=1;entryY=0.5;entryDx=0;entryDy=0;" edge="1" parent="1" source="FGnUj0IoWi0735SVEYUN-17" target="FGnUj0IoWi0735SVEYUN-31">
          <mxGeometry width="160" relative="1" as="geometry">
            <mxPoint x="570" y="211.29000000000002" as="sourcePoint" />
            <mxPoint x="250" y="200" as="targetPoint" />
            <Array as="points">
              <mxPoint x="510" y="165" />
            </Array>
          </mxGeometry>
        </mxCell>
        <mxCell id="FGnUj0IoWi0735SVEYUN-38" value="" style="html=1;verticalAlign=bottom;labelBackgroundColor=none;endArrow=block;endFill=1;rounded=0;exitX=0.5;exitY=1;exitDx=0;exitDy=0;entryX=1;entryY=0.5;entryDx=0;entryDy=0;" edge="1" parent="1" source="FGnUj0IoWi0735SVEYUN-32" target="FGnUj0IoWi0735SVEYUN-37">
          <mxGeometry width="160" relative="1" as="geometry">
            <mxPoint x="790" y="970" as="sourcePoint" />
            <mxPoint x="870" y="970" as="targetPoint" />
            <Array as="points">
              <mxPoint x="910" y="920" />
            </Array>
          </mxGeometry>
        </mxCell>
        <mxCell id="FGnUj0IoWi0735SVEYUN-41" value="" style="html=1;verticalAlign=bottom;labelBackgroundColor=none;endArrow=block;endFill=1;rounded=0;entryX=1;entryY=0.5;entryDx=0;entryDy=0;exitX=0.25;exitY=1;exitDx=0;exitDy=0;" edge="1" parent="1" source="FGnUj0IoWi0735SVEYUN-39" target="FGnUj0IoWi0735SVEYUN-40">
          <mxGeometry width="160" relative="1" as="geometry">
            <mxPoint x="70" y="1110" as="sourcePoint" />
            <mxPoint x="780" y="1109" as="targetPoint" />
            <Array as="points">
              <mxPoint x="853" y="1210" />
            </Array>
          </mxGeometry>
        </mxCell>
      </root>
    </mxGraphModel>
  </diagram>
</mxfile>
